<svg width="176" height="32" viewBox="0 0 176 32" fill="none" xmlns="http://www.w3.org/2000/svg">
<path d="M0.609375 12.4062C0.609375 11.3021 0.75 10.2396 1.03125 9.21875C1.32292 8.1875 1.74479 7.22917 2.29688 6.34375C2.84896 5.45833 3.52604 4.65104 4.32812 3.92188C5.13021 3.19271 6.04167 2.56771 7.0625 2.04688C8.09375 1.52604 9.22917 1.125 10.4688 0.84375C11.7083 0.552083 13.0417 0.40625 14.4688 0.40625C15.3854 0.40625 16.2604 0.463542 17.0938 0.578125C17.9375 0.692708 18.7292 0.854167 19.4688 1.0625C20.2083 1.26042 20.8906 1.49479 21.5156 1.76562C22.151 2.02604 22.724 2.30208 23.2344 2.59375L21.8906 5.21875C21.3073 4.9375 20.6406 4.70312 19.8906 4.51562C19.151 4.31771 18.3802 4.21875 17.5781 4.21875C16.5052 4.21875 15.5104 4.41146 14.5938 4.79688C13.6771 5.18229 12.8854 5.72917 12.2188 6.4375C11.5521 7.14583 11.026 8.00521 10.6406 9.01562C10.2656 10.0156 10.0781 11.1406 10.0781 12.3906C10.0781 13.6302 10.2656 14.7552 10.6406 15.7656C11.0156 16.7656 11.5312 17.625 12.1875 18.3438C12.8542 19.0521 13.6406 19.6042 14.5469 20C15.4635 20.3854 16.4531 20.5781 17.5156 20.5781V12.7188H26.625L25 15.6719V21.9844L25.0156 22.0156C24.5052 22.3177 23.875 22.6094 23.125 22.8906C22.375 23.1719 21.5365 23.4271 20.6094 23.6562C19.6927 23.875 18.7135 24.0521 17.6719 24.1875C16.6302 24.3229 15.5625 24.3906 14.4688 24.3906C12.3333 24.3906 10.4062 24.0781 8.6875 23.4531C6.97917 22.8177 5.52604 21.9583 4.32812 20.875C3.13021 19.7812 2.20833 18.5104 1.5625 17.0625C0.927083 15.6042 0.609375 14.0521 0.609375 12.4062ZM29.3438 8.51562H36.8281L37.5781 10.7656C38.1719 10.3281 38.7292 9.95312 39.25 9.64062C39.7812 9.31771 40.2917 9.05208 40.7812 8.84375C41.2812 8.625 41.7604 8.46875 42.2188 8.375C42.6875 8.27083 43.151 8.21875 43.6094 8.21875C44.276 8.21875 44.875 8.3125 45.4062 8.5C45.9479 8.6875 46.4062 8.95312 46.7812 9.29688C47.1667 9.64062 47.4583 10.0521 47.6562 10.5312C47.8646 11 47.9688 11.5208 47.9688 12.0938C47.9688 12.6667 47.8438 13.1927 47.5938 13.6719C47.3542 14.151 47 14.5677 46.5312 14.9219C46.0625 15.2656 45.4844 15.5365 44.7969 15.7344C44.1198 15.9219 43.3438 16.0156 42.4688 16.0156L39.7188 12.3438C39.4167 12.3438 39.0885 12.4062 38.7344 12.5312C38.3802 12.6562 38.0781 12.8542 37.8281 13.125V24H29.3438V8.51562ZM49.3906 16.2656C49.3906 15.0365 49.6406 13.9271 50.1406 12.9375C50.651 11.9479 51.3802 11.1042 52.3281 10.4062C53.2865 9.70833 54.4531 9.17188 55.8281 8.79688C57.2031 8.41146 58.7656 8.21875 60.5156 8.21875C62.2656 8.21875 63.8281 8.41146 65.2031 8.79688C66.5781 9.17188 67.7396 9.70833 68.6875 10.4062C69.6458 11.1042 70.375 11.9479 70.875 12.9375C71.3854 13.9271 71.6406 15.0365 71.6406 16.2656C71.6406 17.4844 71.3854 18.5885 70.875 19.5781C70.375 20.5677 69.6458 21.4115 68.6875 22.1094C67.7396 22.8073 66.5781 23.349 65.2031 23.7344C63.8281 24.1094 62.2656 24.2969 60.5156 24.2969C58.7656 24.2969 57.2031 24.1094 55.8281 23.7344C54.4531 23.349 53.2865 22.8073 52.3281 22.1094C51.3802 21.4115 50.651 20.5677 50.1406 19.5781C49.6406 18.5885 49.3906 17.4844 49.3906 16.2656ZM60.5156 21.4375C60.901 21.4375 61.2448 21.3594 61.5469 21.2031C61.849 21.0469 62.099 20.776 62.2969 20.3906C62.4948 19.9948 62.6458 19.4635 62.75 18.7969C62.8542 18.1302 62.9062 17.2865 62.9062 16.2656C62.9062 15.2344 62.8542 14.3854 62.75 13.7188C62.6458 13.0521 62.4948 12.526 62.2969 12.1406C62.099 11.7448 61.849 11.4688 61.5469 11.3125C61.2448 11.1562 60.901 11.0781 60.5156 11.0781C60.1198 11.0781 59.7708 11.1562 59.4688 11.3125C59.1771 11.4688 58.9323 11.7448 58.7344 12.1406C58.5365 12.526 58.3854 13.0521 58.2812 13.7188C58.1771 14.3854 58.125 15.2344 58.125 16.2656C58.125 17.2865 58.1771 18.1302 58.2812 18.7969C58.3854 19.4635 58.5365 19.9948 58.7344 20.3906C58.9323 20.776 59.1771 21.0469 59.4688 21.2031C59.7708 21.3594 60.1198 21.4375 60.5156 21.4375ZM74.8438 8.5H83.3281V17.9688C83.3281 18.3854 83.3646 18.7344 83.4375 19.0156C83.5104 19.2969 83.6198 19.526 83.7656 19.7031C83.9219 19.8698 84.1094 19.9948 84.3281 20.0781C84.5469 20.151 84.8073 20.1875 85.1094 20.1875C85.4844 20.1875 85.8125 20.1302 86.0938 20.0156C86.375 19.8906 86.6615 19.6771 86.9531 19.375V8.5H95.4375V23.9844H87.9531L87.2031 21.7344C86.2552 22.6615 85.2292 23.3229 84.125 23.7188C83.0208 24.1042 81.8958 24.2969 80.75 24.2969C78.8646 24.2969 77.4062 23.7917 76.375 22.7812C75.3542 21.7604 74.8438 20.1927 74.8438 18.0781V8.5ZM99.8125 8.51562H107.625L108.281 10.5469C108.573 10.2656 108.922 9.98438 109.328 9.70312C109.734 9.42188 110.182 9.17188 110.672 8.95312C111.161 8.73438 111.688 8.55729 112.25 8.42188C112.823 8.28646 113.417 8.21875 114.031 8.21875C115.208 8.21875 116.312 8.39062 117.344 8.73438C118.375 9.07812 119.276 9.58854 120.047 10.2656C120.818 10.9427 121.422 11.7812 121.859 12.7812C122.307 13.7812 122.531 14.9427 122.531 16.2656C122.531 17.4844 122.318 18.5885 121.891 19.5781C121.474 20.5573 120.87 21.401 120.078 22.1094C119.286 22.8073 118.323 23.349 117.188 23.7344C116.062 24.1094 114.797 24.2969 113.391 24.2969C112.318 24.2969 111.349 24.1719 110.484 23.9219C109.63 23.6615 108.901 23.3021 108.297 22.8438V31.7344H99.8125V8.51562ZM108.297 20.7969C108.557 21.0365 108.849 21.224 109.172 21.3594C109.495 21.4948 109.818 21.5625 110.141 21.5625C110.661 21.5625 111.141 21.4688 111.578 21.2812C112.026 21.0833 112.411 20.7812 112.734 20.375C113.068 19.9688 113.323 19.4531 113.5 18.8281C113.688 18.1927 113.781 17.4323 113.781 16.5469C113.781 15.651 113.693 14.8854 113.516 14.25C113.349 13.6146 113.115 13.099 112.812 12.7031C112.51 12.2969 112.151 12 111.734 11.8125C111.318 11.625 110.859 11.5312 110.359 11.5312C109.964 11.5312 109.589 11.6042 109.234 11.75C108.88 11.8854 108.568 12.0729 108.297 12.3125V20.7969ZM125.328 12.4062C125.328 11.3021 125.469 10.2396 125.75 9.21875C126.042 8.1875 126.464 7.22917 127.016 6.34375C127.568 5.45833 128.245 4.65104 129.047 3.92188C129.849 3.19271 130.76 2.56771 131.781 2.04688C132.812 1.52604 133.948 1.125 135.188 0.84375C136.427 0.552083 137.76 0.40625 139.188 0.40625C140.104 0.40625 140.979 0.463542 141.812 0.578125C142.656 0.692708 143.448 0.854167 144.188 1.0625C144.927 1.26042 145.609 1.49479 146.234 1.76562C146.87 2.02604 147.443 2.30208 147.953 2.59375L146.609 5.21875C146.026 4.9375 145.359 4.70312 144.609 4.51562C143.87 4.31771 143.099 4.21875 142.297 4.21875C141.224 4.21875 140.229 4.41146 139.312 4.79688C138.396 5.18229 137.604 5.72917 136.938 6.4375C136.271 7.14583 135.745 8.00521 135.359 9.01562C134.984 10.0156 134.797 11.1406 134.797 12.3906C134.797 13.6302 134.984 14.7552 135.359 15.7656C135.734 16.7656 136.25 17.625 136.906 18.3438C137.573 19.0521 138.359 19.6042 139.266 20C140.182 20.3854 141.172 20.5781 142.234 20.5781V12.7188H151.344L149.719 15.6719V21.9844L149.734 22.0156C149.224 22.3177 148.594 22.6094 147.844 22.8906C147.094 23.1719 146.255 23.4271 145.328 23.6562C144.411 23.875 143.432 24.0521 142.391 24.1875C141.349 24.3229 140.281 24.3906 139.188 24.3906C137.052 24.3906 135.125 24.0781 133.406 23.4531C131.698 22.8177 130.245 21.9583 129.047 20.875C127.849 19.7812 126.927 18.5104 126.281 17.0625C125.646 15.6042 125.328 14.0521 125.328 12.4062ZM153.047 16.2656C153.047 15.0365 153.297 13.9271 153.797 12.9375C154.307 11.9479 155.036 11.1042 155.984 10.4062C156.943 9.70833 158.109 9.17188 159.484 8.79688C160.859 8.41146 162.422 8.21875 164.172 8.21875C165.922 8.21875 167.484 8.41146 168.859 8.79688C170.234 9.17188 171.396 9.70833 172.344 10.4062C173.302 11.1042 174.031 11.9479 174.531 12.9375C175.042 13.9271 175.297 15.0365 175.297 16.2656C175.297 17.4844 175.042 18.5885 174.531 19.5781C174.031 20.5677 173.302 21.4115 172.344 22.1094C171.396 22.8073 170.234 23.349 168.859 23.7344C167.484 24.1094 165.922 24.2969 164.172 24.2969C162.422 24.2969 160.859 24.1094 159.484 23.7344C158.109 23.349 156.943 22.8073 155.984 22.1094C155.036 21.4115 154.307 20.5677 153.797 19.5781C153.297 18.5885 153.047 17.4844 153.047 16.2656ZM164.172 21.4375C164.557 21.4375 164.901 21.3594 165.203 21.2031C165.505 21.0469 165.755 20.776 165.953 20.3906C166.151 19.9948 166.302 19.4635 166.406 18.7969C166.51 18.1302 166.562 17.2865 166.562 16.2656C166.562 15.2344 166.51 14.3854 166.406 13.7188C166.302 13.0521 166.151 12.526 165.953 12.1406C165.755 11.7448 165.505 11.4688 165.203 11.3125C164.901 11.1562 164.557 11.0781 164.172 11.0781C163.776 11.0781 163.427 11.1562 163.125 11.3125C162.833 11.4688 162.589 11.7448 162.391 12.1406C162.193 12.526 162.042 13.0521 161.938 13.7188C161.833 14.3854 161.781 15.2344 161.781 16.2656C161.781 17.2865 161.833 18.1302 161.938 18.7969C162.042 19.4635 162.193 19.9948 162.391 20.3906C162.589 20.776 162.833 21.0469 163.125 21.2031C163.427 21.3594 163.776 21.4375 164.172 21.4375Z" fill="white"/>
</svg>
