<svg width="55" height="25" viewBox="0 0 55 25" fill="none" xmlns="http://www.w3.org/2000/svg">
<path d="M0.609375 12.4062C0.609375 11.3021 0.75 10.2396 1.03125 9.21875C1.32292 8.1875 1.74479 7.22917 2.29688 6.34375C2.84896 5.45833 3.52604 4.65104 4.32812 3.92188C5.13021 3.19271 6.04167 2.56771 7.0625 2.04688C8.09375 1.52604 9.22917 1.125 10.4688 0.84375C11.7083 0.552083 13.0417 0.40625 14.4688 0.40625C15.3854 0.40625 16.2604 0.463542 17.0938 0.578125C17.9375 0.692708 18.7292 0.854167 19.4688 1.0625C20.2083 1.26042 20.8906 1.49479 21.5156 1.76562C22.151 2.02604 22.724 2.30208 23.2344 2.59375L21.8906 5.21875C21.3073 4.9375 20.6406 4.70312 19.8906 4.51562C19.151 4.31771 18.3802 4.21875 17.5781 4.21875C16.5052 4.21875 15.5104 4.41146 14.5938 4.79688C13.6771 5.18229 12.8854 5.72917 12.2188 6.4375C11.5521 7.14583 11.026 8.00521 10.6406 9.01562C10.2656 10.0156 10.0781 11.1406 10.0781 12.3906C10.0781 13.6302 10.2656 14.7552 10.6406 15.7656C11.0156 16.7656 11.5312 17.625 12.1875 18.3438C12.8542 19.0521 13.6406 19.6042 14.5469 20C15.4635 20.3854 16.4531 20.5781 17.5156 20.5781V12.7188H26.625L25 15.6719V21.9844L25.0156 22.0156C24.5052 22.3177 23.875 22.6094 23.125 22.8906C22.375 23.1719 21.5365 23.4271 20.6094 23.6562C19.6927 23.875 18.7135 24.0521 17.6719 24.1875C16.6302 24.3229 15.5625 24.3906 14.4688 24.3906C12.3333 24.3906 10.4062 24.0781 8.6875 23.4531C6.97917 22.8177 5.52604 21.9583 4.32812 20.875C3.13021 19.7812 2.20833 18.5104 1.5625 17.0625C0.927083 15.6042 0.609375 14.0521 0.609375 12.4062ZM28.7656 12.4062C28.7656 11.3021 28.9062 10.2396 29.1875 9.21875C29.4792 8.1875 29.901 7.22917 30.4531 6.34375C31.0052 5.45833 31.6823 4.65104 32.4844 3.92188C33.2865 3.19271 34.1979 2.56771 35.2188 2.04688C36.25 1.52604 37.3854 1.125 38.625 0.84375C39.8646 0.552083 41.1979 0.40625 42.625 0.40625C43.5417 0.40625 44.4167 0.463542 45.25 0.578125C46.0938 0.692708 46.8854 0.854167 47.625 1.0625C48.3646 1.26042 49.0469 1.49479 49.6719 1.76562C50.3073 2.02604 50.8802 2.30208 51.3906 2.59375L50.0469 5.21875C49.4635 4.9375 48.7969 4.70312 48.0469 4.51562C47.3073 4.31771 46.5365 4.21875 45.7344 4.21875C44.6615 4.21875 43.6667 4.41146 42.75 4.79688C41.8333 5.18229 41.0417 5.72917 40.375 6.4375C39.7083 7.14583 39.1823 8.00521 38.7969 9.01562C38.4219 10.0156 38.2344 11.1406 38.2344 12.3906C38.2344 13.6302 38.4219 14.7552 38.7969 15.7656C39.1719 16.7656 39.6875 17.625 40.3438 18.3438C41.0104 19.0521 41.7969 19.6042 42.7031 20C43.6198 20.3854 44.6094 20.5781 45.6719 20.5781V12.7188H54.7812L53.1562 15.6719V21.9844L53.1719 22.0156C52.6615 22.3177 52.0312 22.6094 51.2812 22.8906C50.5312 23.1719 49.6927 23.4271 48.7656 23.6562C47.849 23.875 46.8698 24.0521 45.8281 24.1875C44.7865 24.3229 43.7188 24.3906 42.625 24.3906C40.4896 24.3906 38.5625 24.0781 36.8438 23.4531C35.1354 22.8177 33.6823 21.9583 32.4844 20.875C31.2865 19.7812 30.3646 18.5104 29.7188 17.0625C29.0833 15.6042 28.7656 14.0521 28.7656 12.4062Z" fill="black"/>
</svg>
